<mxfile host="app.diagrams.net" modified="2023-09-15T11:07:46.670Z" agent="Mozilla/5.0 (Windows NT 10.0; Win64; x64) AppleWebKit/537.36 (KHTML, like Gecko) Chrome/116.0.0.0 Safari/537.36" etag="CV5B-2sKdf5bvrl7ISG6" version="21.7.5" type="device">
  <diagram name="Page-1" id="2g-C7YC79J_KoNVsVvH5">
    <mxGraphModel dx="1674" dy="750" grid="1" gridSize="10" guides="1" tooltips="1" connect="1" arrows="1" fold="1" page="1" pageScale="1" pageWidth="827" pageHeight="1169" math="0" shadow="0">
      <root>
        <mxCell id="0" />
        <mxCell id="1" parent="0" />
        <mxCell id="dzmxft2GeK-ZVEtX1MlG-1" value="User" style="swimlane;fontStyle=0;childLayout=stackLayout;horizontal=1;startSize=26;fillColor=none;horizontalStack=0;resizeParent=1;resizeParentMax=0;resizeLast=0;collapsible=1;marginBottom=0;whiteSpace=wrap;html=1;" vertex="1" parent="1">
          <mxGeometry x="80" y="150" width="150" height="200" as="geometry" />
        </mxCell>
        <mxCell id="dzmxft2GeK-ZVEtX1MlG-2" value="Id : tinyint : PK&lt;br&gt;&lt;br&gt;Password : varchar(100)&lt;br&gt;&lt;br&gt;Email : varchar(50) UK&lt;br&gt;&lt;br&gt;Number : varchar(12)&lt;br&gt;&lt;br&gt;FirstName : varchar(20)&lt;br&gt;&lt;br&gt;Lastname : varchar(20)" style="text;strokeColor=none;fillColor=none;align=left;verticalAlign=top;spacingLeft=4;spacingRight=4;overflow=hidden;rotatable=0;points=[[0,0.5],[1,0.5]];portConstraint=eastwest;whiteSpace=wrap;html=1;" vertex="1" parent="dzmxft2GeK-ZVEtX1MlG-1">
          <mxGeometry y="26" width="150" height="174" as="geometry" />
        </mxCell>
        <mxCell id="dzmxft2GeK-ZVEtX1MlG-5" value="Reservation" style="swimlane;fontStyle=0;childLayout=stackLayout;horizontal=1;startSize=26;fillColor=none;horizontalStack=0;resizeParent=1;resizeParentMax=0;resizeLast=0;collapsible=1;marginBottom=0;whiteSpace=wrap;html=1;" vertex="1" parent="1">
          <mxGeometry x="330" y="170" width="140" height="110" as="geometry">
            <mxRectangle x="330" y="170" width="100" height="30" as="alternateBounds" />
          </mxGeometry>
        </mxCell>
        <mxCell id="dzmxft2GeK-ZVEtX1MlG-6" value="Id : tinyint : PK&lt;br style=&quot;border-color: var(--border-color);&quot;&gt;&lt;br style=&quot;border-color: var(--border-color);&quot;&gt;UserId : tinyint : FK&lt;br&gt;&lt;br&gt;DateTime : datetime" style="text;strokeColor=none;fillColor=none;align=left;verticalAlign=top;spacingLeft=4;spacingRight=4;overflow=hidden;rotatable=0;points=[[0,0.5],[1,0.5]];portConstraint=eastwest;whiteSpace=wrap;html=1;" vertex="1" parent="dzmxft2GeK-ZVEtX1MlG-5">
          <mxGeometry y="26" width="140" height="84" as="geometry" />
        </mxCell>
        <mxCell id="dzmxft2GeK-ZVEtX1MlG-9" style="edgeStyle=orthogonalEdgeStyle;rounded=0;orthogonalLoop=1;jettySize=auto;html=1;entryX=0.993;entryY=0.075;entryDx=0;entryDy=0;entryPerimeter=0;" edge="1" parent="1" source="dzmxft2GeK-ZVEtX1MlG-6" target="dzmxft2GeK-ZVEtX1MlG-2">
          <mxGeometry relative="1" as="geometry" />
        </mxCell>
      </root>
    </mxGraphModel>
  </diagram>
</mxfile>
